<svg width="500" height="303" viewBox="0 0 500 303" fill="none" xmlns="http://www.w3.org/2000/svg">
<rect x="95.5" y="94.5" width="311" height="105" stroke="#919191"/>
<path fill-rule="evenodd" clip-rule="evenodd" d="M499 178L499 116L407.194 116L407.194 138.111L406.194 138.111L406.194 116L406.194 115L407.194 115L499 115L500 115L500 116L500 178L500 179L499 179L407.194 179L406.194 179L406.194 178L406.194 155.889L407.194 155.889L407.194 178L499 178Z" fill="white"/>
<rect width="30.0752" height="5.48571" transform="matrix(1.19249e-08 -1 -1 -1.19249e-08 409.486 162.126)" fill="white"/>
<path d="M474.575 150.379H463.325V162H457.465V133.562H475.981V138.309H463.325V145.652H474.575V150.379Z" fill="white"/>
<path fill-rule="evenodd" clip-rule="evenodd" d="M285 294H348V200.24H325.528V199.24H348H349V200.24V294V295H348H285H284V294V200.24V199.24H285H307.472V200.24H285V294Z" fill="#FA00FF"/>
<rect width="30.5451" height="5.6" transform="matrix(1 0 0 -1 301.138 202.6)" fill="#FA00FF"/>
<path d="M324.639 261.676H313.389V269.293H326.592V274H307.53V245.562H326.553V250.309H313.389V257.086H324.639V261.676Z" fill="#FA00FF"/>
<path fill-rule="evenodd" clip-rule="evenodd" d="M155 294H217V200.24H194.889V199.24H217H218V200.24V294V295H217H155H154V294V200.24V199.24H155H177.111V200.24H155V294Z" fill="#0075FF"/>
<rect width="30.0752" height="5.6" transform="matrix(1 0 0 -1 170.874 202.6)" fill="#0075FF"/>
<path d="M175.415 274V245.562H184.165C186.665 245.562 188.898 246.129 190.864 247.261C192.843 248.381 194.386 249.983 195.493 252.066C196.6 254.136 197.153 256.493 197.153 259.136V260.445C197.153 263.088 196.606 265.439 195.512 267.496C194.432 269.553 192.902 271.148 190.923 272.281C188.943 273.414 186.71 273.987 184.223 274H175.415ZM181.274 250.308V269.293H184.106C186.398 269.293 188.149 268.544 189.36 267.047C190.571 265.549 191.189 263.407 191.215 260.621V259.117C191.215 256.226 190.617 254.039 189.419 252.554C188.221 251.057 186.469 250.308 184.165 250.308H181.274Z" fill="#0075FF"/>
<path fill-rule="evenodd" clip-rule="evenodd" d="M1 178L0.999999 116L94.7601 116L94.7601 138.111L95.7601 138.111L95.7601 116L95.7601 115L94.7601 115L0.999999 115L-7.63192e-07 115L-7.51267e-07 116L-1.19249e-08 178L0 179L1 179L94.7601 179L95.7601 179L95.7601 178L95.7601 155.889L94.7601 155.889L94.7601 178L1 178Z" fill="#70FF00"/>
<rect x="92.3999" y="162.126" width="30.0752" height="5.60001" transform="rotate(-90 92.3999 162.126)" fill="#70FF00"/>
<path d="M46.6608 152.527C46.4394 155.587 45.3066 157.996 43.2624 159.754C41.2311 161.511 38.5488 162.39 35.2155 162.39C31.5697 162.39 28.6986 161.166 26.6022 158.719C24.5189 156.258 23.4772 152.885 23.4772 148.601V146.863C23.4772 144.129 23.959 141.72 24.9225 139.636C25.8861 137.553 27.2598 135.958 29.0436 134.851C30.8405 133.732 32.9238 133.172 35.2936 133.172C38.5749 133.172 41.2181 134.051 43.2233 135.808C45.2285 137.566 46.3874 140.034 46.6999 143.211H40.8405C40.6973 141.375 40.1829 140.047 39.2975 139.226C38.4251 138.393 37.0905 137.976 35.2936 137.976C33.3405 137.976 31.8756 138.679 30.8991 140.086C29.9355 141.479 29.4407 143.647 29.4147 146.59V148.738C29.4147 151.811 29.8769 154.057 30.8014 155.476C31.7389 156.896 33.2103 157.605 35.2155 157.605C37.0254 157.605 38.373 157.195 39.2585 156.375C40.1569 155.541 40.6712 154.259 40.8014 152.527H46.6608Z" fill="#70FF00"/>
<path fill-rule="evenodd" clip-rule="evenodd" d="M155 1H218V93.7829H195.528V94.7829H218H219V93.7829V1V0H218H155H154V1V93.7829V94.7829H155H177.472V93.7829H155V1Z" fill="#FF6D00"/>
<rect x="171.138" y="91.457" width="30.5451" height="5.54286" fill="#FF6D00"/>
<path d="M175.532 50.8572V22.4197H185.493C188.944 22.4197 191.561 23.0837 193.345 24.4119C195.129 25.727 196.021 27.6606 196.021 30.2126C196.021 31.6059 195.663 32.8363 194.946 33.9041C194.23 34.9587 193.234 35.7335 191.958 36.2283C193.416 36.5929 194.562 37.3285 195.396 38.4353C196.242 39.5421 196.665 40.8962 196.665 42.4978C196.665 45.2322 195.793 47.3025 194.048 48.7087C192.303 50.115 189.816 50.8311 186.587 50.8572H175.532ZM181.392 38.4744V46.1501H186.411C187.791 46.1501 188.866 45.8246 189.634 45.1736C190.415 44.5095 190.806 43.5981 190.806 42.4392C190.806 39.835 189.458 38.5134 186.763 38.4744H181.392ZM181.392 34.3337H185.728C188.683 34.2817 190.161 33.1033 190.161 30.7986C190.161 29.5095 189.784 28.585 189.028 28.0251C188.286 27.4522 187.108 27.1658 185.493 27.1658H181.392V34.3337Z" fill="#FF6D00"/>
<path fill-rule="evenodd" clip-rule="evenodd" d="M285 1H347V93.7829H324.889V94.7829H347H348V93.7829V1V0H347H285H284V1V93.7829V94.7829H285H307.111V93.7829H285V1Z" fill="#FFE600"/>
<rect x="300.874" y="91.457" width="30.0752" height="5.54286" fill="#FFE600"/>
<path d="M320.985 44.9978H310.711L308.758 50.8572H302.528L313.114 22.4197H318.543L329.188 50.8572H322.957L320.985 44.9978ZM312.293 40.2517H319.403L315.828 29.6072L312.293 40.2517Z" fill="#FFE600"/>
</svg>
